HIERARCHY
ROOT Hips
{
    OFFSET   0.000000   0.000000   0.000000
    CHANNELS 6 Xposition Yposition Zposition Zrotation Xrotation Yrotation
    JOINT Chest
    {
        OFFSET   0.000000   8.007230   0.000000
        CHANNELS 3 Zrotation Xrotation Yrotation
        JOINT Chest2
        {
            OFFSET   0.000000  22.077100   0.000000
            CHANNELS 3 Zrotation Xrotation Yrotation
            JOINT Neck
            {
                OFFSET   0.000000  23.254800  -0.000021
                CHANNELS 3 Zrotation Xrotation Yrotation
                JOINT Head
                {
                    OFFSET   0.000000  14.370000   1.956610
                    CHANNELS 3 Zrotation Xrotation Yrotation
                    End Site
                    {
                        OFFSET   0.000000  19.566000   0.000000
                    }
                }
            }
            JOINT LeftCollar
            {
                OFFSET   3.911900  19.017000  -0.467063
                CHANNELS 3 Zrotation Xrotation Yrotation
                JOINT LeftShoulder
                {
                    OFFSET  10.383700   0.000000   0.000000
                    CHANNELS 3 Zrotation Xrotation Yrotation
                    JOINT LeftElbow
                    {
                        OFFSET  26.662100   0.001529   0.000325
                        CHANNELS 3 Zrotation Xrotation Yrotation
                        JOINT LeftWrist
                        {
                            OFFSET  28.869000  -0.000011  -0.000096
                            CHANNELS 3 Zrotation Xrotation Yrotation
                            JOINT LeftFinger0
                            {
                                OFFSET   2.044650  -2.323460   3.252850
                                CHANNELS 3 Zrotation Xrotation Yrotation
                                JOINT LeftFinger01
                                {
                                    OFFSET   3.088130   0.000000   0.000000
                                    CHANNELS 3 Zrotation Xrotation Yrotation
                                    JOINT LeftFinger02
                                    {
                                        OFFSET   2.639460   0.000000   0.000000
                                        CHANNELS 3 Zrotation Xrotation Yrotation
                                        End Site
                                        {
                                            OFFSET   2.582190   0.000000   0.000000
                                        }
                                    }
                                }
                            }
                            JOINT LeftFinger1
                            {
                                OFFSET   8.364480   0.000000   3.252850
                                CHANNELS 3 Zrotation Xrotation Yrotation
                                JOINT LeftFinger11
                                {
                                    OFFSET   4.646930   0.000000   0.000000
                                    CHANNELS 3 Zrotation Xrotation Yrotation
                                    JOINT LeftFinger12
                                    {
                                        OFFSET   2.323460   0.000000   0.000000
                                        CHANNELS 3 Zrotation Xrotation Yrotation
                                        End Site
                                        {
                                            OFFSET   2.273050   0.000000   0.000000
                                        }
                                    }
                                }
                            }
                            JOINT LeftFinger2
                            {
                                OFFSET   8.364480   0.000016   1.078090
                                CHANNELS 3 Zrotation Xrotation Yrotation
                                JOINT LeftFinger21
                                {
                                    OFFSET   5.111620   0.000000   0.000000
                                    CHANNELS 3 Zrotation Xrotation Yrotation
                                    JOINT LeftFinger22
                                    {
                                        OFFSET   2.788160   0.000017   0.000000
                                        CHANNELS 3 Zrotation Xrotation Yrotation
                                        End Site
                                        {
                                            OFFSET   2.727660   0.000000   0.000000
                                        }
                                    }
                                }
                            }
                            JOINT LeftFinger3
                            {
                                OFFSET   7.899780   0.000015  -1.078090
                                CHANNELS 3 Zrotation Xrotation Yrotation
                                JOINT LeftFinger31
                                {
                                    OFFSET   4.646920   0.000000   0.000000
                                    CHANNELS 3 Zrotation Xrotation Yrotation
                                    JOINT LeftFinger32
                                    {
                                        OFFSET   2.323470   0.000000   0.000000
                                        CHANNELS 3 Zrotation Xrotation Yrotation
                                        End Site
                                        {
                                            OFFSET   2.273050   0.000000   0.000000
                                        }
                                    }
                                }
                            }
                            JOINT LeftFinger4
                            {
                                OFFSET   7.435090   0.000000  -3.252850
                                CHANNELS 3 Zrotation Xrotation Yrotation
                                JOINT LeftFinger41
                                {
                                    OFFSET   3.717550   0.000000   0.000000
                                    CHANNELS 3 Zrotation Xrotation Yrotation
                                    JOINT LeftFinger42
                                    {
                                        OFFSET   1.858760   0.000000   0.000000
                                        CHANNELS 3 Zrotation Xrotation Yrotation
                                        End Site
                                        {
                                            OFFSET   1.818440   0.000000   0.000000
                                        }
                                    }
                                }
                            }
                        }
                    }
                }
            }
            JOINT RightCollar
            {
                OFFSET  -3.911900  19.017000  -0.467062
                CHANNELS 3 Zrotation Xrotation Yrotation
                JOINT RightShoulder
                {
                    OFFSET -10.383700   0.000015   0.000000
                    CHANNELS 3 Zrotation Xrotation Yrotation
                    JOINT RightElbow
                    {
                        OFFSET -26.662100   0.001341   0.000385
                        CHANNELS 3 Zrotation Xrotation Yrotation
                        JOINT RightWrist
                        {
                            OFFSET -28.869000   0.000025  -0.000080
                            CHANNELS 3 Zrotation Xrotation Yrotation
                            JOINT RightFinger0
                            {
                                OFFSET  -2.044650  -2.323490   3.252850
                                CHANNELS 3 Zrotation Xrotation Yrotation
                                JOINT RightFinger01
                                {
                                    OFFSET  -3.088130   0.000000   0.000000
                                    CHANNELS 3 Zrotation Xrotation Yrotation
                                    JOINT RightFinger02
                                    {
                                        OFFSET  -2.639460   0.000000   0.000000
                                        CHANNELS 3 Zrotation Xrotation Yrotation
                                        End Site
                                        {
                                            OFFSET  -2.582190   0.000000   0.000000
                                        }
                                    }
                                }
                            }
                            JOINT RightFinger1
                            {
                                OFFSET  -8.364480   0.000000   3.252850
                                CHANNELS 3 Zrotation Xrotation Yrotation
                                JOINT RightFinger11
                                {
                                    OFFSET  -4.646930   0.000000   0.000000
                                    CHANNELS 3 Zrotation Xrotation Yrotation
                                    JOINT RightFinger12
                                    {
                                        OFFSET  -2.323470   0.000000   0.000000
                                        CHANNELS 3 Zrotation Xrotation Yrotation
                                        End Site
                                        {
                                            OFFSET  -2.273050   0.000000   0.000000
                                        }
                                    }
                                }
                            }
                            JOINT RightFinger2
                            {
                                OFFSET  -8.364480   0.000000   1.078090
                                CHANNELS 3 Zrotation Xrotation Yrotation
                                JOINT RightFinger21
                                {
                                    OFFSET  -5.111610   0.000000   0.000000
                                    CHANNELS 3 Zrotation Xrotation Yrotation
                                    JOINT RightFinger22
                                    {
                                        OFFSET  -2.788160   0.000000   0.000000
                                        CHANNELS 3 Zrotation Xrotation Yrotation
                                        End Site
                                        {
                                            OFFSET  -2.727660   0.000000   0.000000
                                        }
                                    }
                                }
                            }
                            JOINT RightFinger3
                            {
                                OFFSET  -7.899780   0.000000  -1.078090
                                CHANNELS 3 Zrotation Xrotation Yrotation
                                JOINT RightFinger31
                                {
                                    OFFSET  -4.646920   0.000000   0.000000
                                    CHANNELS 3 Zrotation Xrotation Yrotation
                                    JOINT RightFinger32
                                    {
                                        OFFSET  -2.323470   0.000000   0.000000
                                        CHANNELS 3 Zrotation Xrotation Yrotation
                                        End Site
                                        {
                                            OFFSET  -2.273050   0.000000   0.000000
                                        }
                                    }
                                }
                            }
                            JOINT RightFinger4
                            {
                                OFFSET  -7.435090   0.000000  -3.252850
                                CHANNELS 3 Zrotation Xrotation Yrotation
                                JOINT RightFinger41
                                {
                                    OFFSET  -3.717550   0.000000   0.000000
                                    CHANNELS 3 Zrotation Xrotation Yrotation
                                    JOINT RightFinger42
                                    {
                                        OFFSET  -1.858770   0.000000   0.000000
                                        CHANNELS 3 Zrotation Xrotation Yrotation
                                        End Site
                                        {
                                            OFFSET  -1.818440   0.000000   0.000000
                                        }
                                    }
                                }
                            }
                        }
                    }
                }
            }
        }
    }
    JOINT LeftHip
    {
        OFFSET   9.783010   0.000000   0.000000
        CHANNELS 3 Zrotation Xrotation Yrotation
        JOINT LeftKnee
        {
            OFFSET   0.000070 -41.789100   0.000028
            CHANNELS 3 Zrotation Xrotation Yrotation
            JOINT LeftAnkle
            {
                OFFSET   0.000087 -41.133200  -0.000100
                CHANNELS 3 Zrotation Xrotation Yrotation
                JOINT LeftToe
                {
                    OFFSET   0.000000  -6.358960  14.674500
                    CHANNELS 3 Zrotation Xrotation Yrotation
                    End Site
                    {
                        OFFSET   0.000000   0.000000   3.913200
                    }
                }
            }
        }
    }
    JOINT RightHip
    {
        OFFSET  -9.783020   0.000000   0.000000
        CHANNELS 3 Zrotation Xrotation Yrotation
        JOINT RightKnee
        {
            OFFSET   0.000044 -41.789100  -0.000870
            CHANNELS 3 Zrotation Xrotation Yrotation
            JOINT RightAnkle
            {
                OFFSET  -0.000090 -41.133200  -0.000245
                CHANNELS 3 Zrotation Xrotation Yrotation
                JOINT RightToe
                {
                    OFFSET   0.000000  -6.358960  14.674500
                    CHANNELS 3 Zrotation Xrotation Yrotation
                    End Site
                    {
                        OFFSET   0.000000   0.000000   3.913200
                    }
                }
            }
        }
    }
}
MOTION
Frames: 4
Frame Time:   0.016667
  2.684760  89.483200  -1.687840  -1.496470  -6.541730  -0.515318   0.581108   4.147880  -0.149252   1.177730   8.294030  -0.342155  -0.357433  -0.526710   0.002000  -0.587332  -1.068050   4.306390  -6.326060   1.843870   7.195960 -76.968300   5.048840   1.005470   0.767359   2.154410 -17.815000  10.588700  -6.668210   0.750005  40.176400  35.583800 -52.207100 -34.282400  -0.010145  -0.001288 -12.141200  -0.004803   0.005006 -36.235900   0.043651  -0.059577 -29.647600  -0.004422   0.001472 -20.753300  -0.003255  -0.008762 -30.916400  -3.722050   6.190270 -46.676600   0.001181   0.000558 -31.086600   0.000461   0.007791 -28.343700  -4.992390   9.169520 -39.730900   0.001754  -0.000214 -26.460800   0.001103  -0.001921 -34.395500  -5.936590   8.591240 -52.262700   0.003495   0.000000 -34.806900   0.001880   0.001372   9.146990   3.355750   7.415240  70.846100 -10.257800   1.526580   1.667500  -6.998580  18.184500 -18.664800   2.565150   2.013830 -42.236000  41.068300  80.468300  30.151700  -0.002981  -0.006588  10.075900  -0.001039  -0.003298  35.585100   2.882380   4.019960  29.197800   0.010163   0.005138  20.438500   0.004678   0.003222  30.428900  -0.661345  -1.125810  45.653100  -0.003009  -0.000811  30.405000  -0.002028  -0.002128  30.968200  -1.969590  -3.277840  46.536900  -0.000490   0.000965  30.993600   0.001229  -0.004269  39.230200  -2.420300  -2.960860  58.939200  -0.000399   0.001347  39.253500  -0.000116  -0.014248   3.279030   7.914530  -3.850670  -0.952107   1.089160  15.229300  -1.203470  -3.215450   3.681260  -0.000000   0.000000  -0.000000  -0.672362   4.565690  -5.696860  -2.109780   6.524000 -13.438900   1.912740  -3.405650   0.278634   0.000000   0.000000  -0.000000
  2.680210  89.483200  -1.688030  -1.498630  -6.541650  -0.535537   0.582108   4.160490  -0.149269   1.179800   8.319200  -0.342282  -0.377448  -0.528115   0.001992  -0.620233  -1.070950   4.318700  -6.329650   1.832760   7.168970 -76.952500   5.065820   1.006710   0.770004   2.150250 -17.832600  10.590500  -6.647330   0.768992  40.999300  36.914800 -52.913000 -34.207900  -0.010345   0.004082 -12.103900  -0.005049   0.005007 -36.244500   0.030749  -0.041934 -29.654600  -0.004560   0.001524 -20.758200  -0.003357  -0.008791 -30.876200  -3.721930   6.201610 -46.616600   0.001043   0.000598 -31.046700   0.000364   0.007776 -28.336800  -5.013590   9.210530 -39.631100   0.001703  -0.000188 -26.394300   0.001065  -0.001926 -34.304100  -5.950120   8.638920 -52.130500   0.003823  -0.000063 -34.718900   0.002040   0.001524   9.137380   3.326050   7.415820  70.843500 -10.239700   1.485990   1.659990  -6.982600  18.317500 -18.610700   2.511160   2.002910 -42.186700  41.020900  80.404400  30.168800  -0.002983  -0.006728  10.084400  -0.001043  -0.003360  35.578900   2.868560   4.001660  29.192000   0.010222   0.005091  20.434400   0.004584   0.003221  30.413200  -0.669155  -1.139870  45.629900  -0.003143  -0.000871  30.389500  -0.002125  -0.002096  30.958600  -1.979630  -3.295800  46.523400  -0.000539   0.000893  30.984600   0.001098  -0.004227  39.213500  -2.432450  -2.977510  58.915100  -0.000460   0.001365  39.237400  -0.000152  -0.014237   3.279040   7.913380  -3.851130  -0.954650   1.098960  15.241200  -1.204300  -3.220630   3.693010  -0.000000   0.000000  -0.000000  -0.672317   4.582900  -5.696880  -2.105730   6.516230 -13.439800   1.914450  -3.405800   0.304422  -0.000000   0.000000  -0.000000
  2.672810  89.483200  -1.688340  -1.502060  -6.541500  -0.566894   0.584635   4.183190  -0.149380   1.184980   8.364530  -0.343059  -0.409917  -0.531616   0.001973  -0.673645  -1.078050   4.331010  -6.352730   1.806590   7.114310 -76.918900   5.091640   1.015270   0.772225   2.121860 -17.893900  10.591600  -6.626450   0.787978  41.866000  38.235000 -53.683900 -34.133300  -0.010544   0.011506 -12.066600  -0.005294   0.005009 -36.259800   0.017846  -0.024290 -29.666800  -0.004788   0.001611 -20.766800  -0.003527  -0.008863 -30.836000  -3.721790   6.212950 -46.556600   0.000812   0.000666 -31.006700   0.000209   0.007738 -28.330000  -5.034780   9.251550 -39.531300   0.001617  -0.000146 -26.327800   0.001001  -0.001938 -34.212700  -5.963640   8.686610 -51.998300   0.004282  -0.000157 -34.630800   0.002266   0.001735   9.117760   3.271690   7.421090  70.837400 -10.221900   1.404720   1.647960  -6.961970  18.565200 -18.492800   2.397060   1.975980 -42.092800  40.925800  80.283400  30.194500  -0.002985  -0.006956  10.097200  -0.001046  -0.003465  35.560700   2.847110   3.974560  29.176000   0.010343   0.004990  20.423200   0.004380   0.003218  30.371300  -0.680917  -1.161750  45.567500  -0.003364  -0.000972  30.348000  -0.002286  -0.002031  30.923100  -1.993990  -3.324280  46.471500  -0.000621   0.000760  30.950000   0.000857  -0.004133  39.171100  -2.450400  -3.003920  58.853100  -0.000563   0.001400  39.196100  -0.000213  -0.014215   3.279170   7.912230  -3.851580  -0.958023   1.111430  15.257900  -1.206110  -3.228400   3.710190   0.000000   0.000000   0.000000  -0.672271   4.600110  -5.696900  -2.101690   6.508450 -13.440600   1.916940  -3.405940   0.343283  -0.000000   0.000000   0.000000
  2.667520  89.483400  -1.688610  -1.504460  -6.541320  -0.587667   0.589823   4.205190  -0.151007   1.195530   8.408530  -0.347045  -0.436736  -0.538596   0.001945  -0.718633  -1.091970   4.330200  -6.409410   1.760050   7.041780 -76.878300   5.108900   1.056070   0.772547   2.051210 -17.995700  10.548200  -6.756440   0.780682  40.619100  36.365100 -52.253200 -34.206000  -0.009574   0.014352 -12.103000  -0.005234   0.005853 -36.267300   0.042423  -0.056820 -29.672300  -0.005014   0.001699 -20.770700  -0.003698  -0.008971 -30.893200  -3.721810   6.196660 -46.641800   0.000580   0.000735 -31.063500   0.000076   0.007679 -28.346600  -4.986250   9.157270 -39.812600   0.001531  -0.000104 -26.515200   0.000937  -0.001952 -34.413200  -5.940250   8.592270 -52.289600   0.004479  -0.000222 -34.824900   0.002368   0.001817   9.094350   3.212940   7.445070  70.827400 -10.222900   1.310100   1.637710  -6.952550  18.808300 -18.351100   2.270990   1.943420 -42.021600  40.839800  80.192100  30.202100  -0.002982  -0.007169  10.101000  -0.001043  -0.003569  35.530800   2.840070   3.967020  29.151100   0.010497   0.004850  20.405800   0.004096   0.003216  30.314300  -0.684396  -1.168980  45.482700  -0.003580  -0.001075  30.291500  -0.002447  -0.001944  30.857200  -1.997420  -3.334260  46.373500  -0.000702   0.000589  30.884700   0.000543  -0.003997  39.115200  -2.455340  -3.013200  58.770100  -0.000670   0.001446  39.140900  -0.000270  -0.014185   3.282220   7.915490  -3.848920  -0.959250   1.113700  15.265000  -1.208480  -3.232340   3.720170   0.000000   0.000000  -0.000000  -0.667460   4.596650  -5.701970  -2.102750   6.512220 -13.434100   1.918230  -3.405770   0.365209  -0.000000   0.000000   0.000000
